<?xml version="1.0" encoding="UTF-8" standalone="no"?>
<svg
   version="1.1"
   id="svg1"
   width="40"
   height="40"
   viewBox="0 0 40 40"
   xmlns="http://www.w3.org/2000/svg"
   xmlns:svg="http://www.w3.org/2000/svg">
  <defs id="defs1" />
  <g id="g1" transform="translate(-50)">
    <g id="g4" transform="translate(50) rotate(-90 20 20)">
      <path
         style="fill:none"
         d="M 0,20 V 0 H 20 40 V 20 40 H 20 0 Z m 4.2586683,14.330854 c 0.1338483,-0.09375 0.1376229,-0.128084 0.137848,-1.25387 2.584e-4,-1.292135 0.036735,-1.42952 0.448119,-1.687775 0.2745257,-0.17234 0.8172987,-0.142898 1.0729555,0.0582 0.3835112,0.30167 0.397344,0.35946 0.3977907,1.661866 4.657e-4,1.358156 -0.016248,1.317968 0.5481086,1.317968 0.2680979,0 0.3290058,-0.02477 0.468467,-0.19051 0.088167,-0.10478 0.160303,-0.229746 0.160303,-0.277702 0,-0.04796 0.071917,-0.331422 0.1598154,-0.629924 0.1939988,-0.658817 0.290628,-1.006989 0.4621765,-1.665299 L 8.2454255,31.160434 8.1163675,30.90746 c -0.070982,-0.139136 -0.3379674,-0.503977 -0.593301,-0.810758 -0.2553336,-0.30678 -0.464243,-0.585862 -0.464243,-0.620181 0,-0.03432 0.062693,-0.07511 0.1393189,-0.09065 0.076625,-0.01554 0.2229027,-0.04621 0.3250606,-0.06816 0.1031659,-0.02217 0.3027421,-0.162014 0.4489164,-0.31457 l 0.2631747,-0.274664 v -3.37393 -3.37393 L 7.8637771,21.614824 7.4922601,21.24903 v -0.755147 -0.755147 l 0.371517,-0.35793 0.371517,-0.35793 V 17.10416 c 0,-1.583405 0.015391,-1.93149 0.088068,-1.991807 0.049281,-0.0409 0.2197238,-0.06469 0.3869969,-0.05402 l 0.2989284,0.01907 0.016027,3.266254 c 0.012501,2.547573 0.032937,3.267311 0.092879,3.271056 0.042269,0.0026 0.5974808,6.89e-4 1.2338046,-0.0043 0.743661,-0.0059 1.202634,0.01531 1.28483,0.0593 0.125133,0.06697 0.127877,0.110956 0.127877,2.049672 0,1.642854 0.01627,2.020165 0.09524,2.209177 0.123516,0.295617 0.251009,0.432291 0.554914,0.594877 0.228726,0.122365 0.357125,0.13408 1.678023,0.153096 0.893902,0.01287 1.52321,-0.0044 1.677954,-0.04608 0.364245,-0.09808 0.648686,-0.314492 0.823589,-0.626609 l 0.154799,-0.276242 0.01945,-2.011183 c 0.01417,-1.465012 0.03939,-2.023863 0.09288,-2.057875 0.09598,-0.06103 7.047826,-0.061 7.143813,3.1e-5 0.0536,0.03408 0.07873,0.59912 0.09288,2.088835 0.01692,1.780888 0.03286,2.066678 0.124596,2.234159 0.135682,0.247701 0.500204,0.566997 0.716373,0.627491 0.09303,0.02603 0.782146,0.04734 1.531372,0.04734 1.340372,0 1.3667,-0.0025 1.640867,-0.155835 0.195735,-0.10947 0.32887,-0.247641 0.44747,-0.464397 l 0.168832,-0.308561 0.0014,-2.021239 c 0.0013,-1.86707 0.0097,-2.024415 0.109805,-2.062874 0.0596,-0.0229 0.561064,-0.03509 1.11437,-0.02708 0.553306,0.008 1.022423,-0.0019 1.042482,-0.02192 0.02006,-0.02006 0.03294,-1.46935 0.02862,-3.220646 -0.0067,-2.708586 0.0055,-3.195271 0.08168,-3.258473 0.05751,-0.04773 0.263251,-0.06779 0.575272,-0.05611 l 0.485746,0.01819 0.03096,2.079233 0.03096,2.079232 0.185759,0.242749 c 0.183544,0.239856 0.185758,0.251974 0.185758,1.016743 v 0.773994 l -0.201238,0.272448 -0.201239,0.272448 v 3.492237 c 0,3.780587 -0.0053,3.718169 0.335214,3.941288 0.08568,0.05614 0.224146,0.102074 0.307698,0.102074 0.191101,0 0.3478,0.05857 0.3478,0.13 0,0.03016 -0.221331,0.318077 -0.491848,0.639823 -0.520613,0.619203 -0.684622,0.878743 -0.684622,1.083397 0,0.11291 0.156524,0.700825 0.49572,1.86195 0.06467,0.221363 0.163485,0.565482 0.219598,0.764709 0.05611,0.199227 0.154964,0.415172 0.219669,0.479876 0.166681,0.166681 0.683619,0.160637 0.961729,-0.01125 l 0.208547,-0.128889 3.45e-4,-1.032101 c 1.9e-4,-0.567656 0.02935,-1.136545 0.0648,-1.264198 0.09771,-0.351841 0.29449,-0.543783 0.599416,-0.584682 0.338413,-0.04539 0.601562,0.06574 0.759038,0.320536 0.111849,0.180975 0.124387,0.307783 0.124387,1.258034 0,0.581224 0.02667,1.12691 0.05926,1.212636 0.131044,0.344672 0.847341,0.475787 1.137619,0.208235 0.160392,-0.147835 0.206101,-0.276025 0.568528,-1.594428 0.126386,-0.459752 0.268489,-0.955308 0.315784,-1.101235 0.0473,-0.145927 0.08599,-0.313522 0.08599,-0.372434 0,-0.187184 -0.250433,-0.583767 -0.720358,-1.140749 -0.250862,-0.297335 -0.456112,-0.566137 -0.456112,-0.597337 0,-0.0706 0.15297,-0.131824 0.330141,-0.132129 0.243345,-4.2e-4 0.525116,-0.22482 0.598553,-0.476684 0.04754,-0.163048 0.06282,-1.288963 0.04981,-3.671692 l -0.01875,-3.436532 -0.201238,-0.272448 c -0.200048,-0.270836 -0.201239,-0.276736 -0.201239,-0.996902 0,-0.720166 0.0012,-0.726066 0.201239,-0.996902 l 0.201238,-0.272448 V 13.692605 8.1592043 L 37.373585,7.9495712 37.13107,7.7399381 h -2.208469 -2.20847 l -0.242514,0.2095503 -0.242515,0.2095503 -0.03096,0.7347221 -0.03096,0.7347222 -0.485746,0.01819 C 31.371564,9.658277 31.163553,9.638193 31.106932,9.5912 31.033972,9.530648 31.019402,9.2503563 31.025062,8.0164065 31.032762,6.3376572 31.020462,6.2771206 30.608607,5.9629526 L 30.381173,5.7894737 20.198824,5.7732672 10.016474,5.7570606 9.7336208,5.8971062 C 9.5653203,5.9804347 9.3739085,6.1457103 9.2609875,6.3052043 L 9.0712074,6.5732569 9.0402477,8.10087 9.0092879,9.628483 8.7103595,9.647552 C 8.2743474,9.6753657 8.2352941,9.6187437 8.2352941,8.9587711 V 8.3971018 L 7.896052,8.06852 7.55681,7.7399381 H 5.3150094 3.0732089 L 2.7749945,8.0493302 2.4767802,8.3587223 2.4770116,13.668525 c 2.252e-4,5.164506 0.00355,5.31525 0.1215951,5.508848 0.06675,0.109475 0.2338285,0.270041 0.3712856,0.356814 l 0.2499219,0.157769 v 0.834306 0.834305 l -0.2106027,0.088 c -0.1158315,0.0484 -0.2830141,0.194558 -0.371517,0.324802 l -0.1609143,0.236806 v 3.332355 c 0,3.674995 -0.01386,3.539163 0.3927764,3.84932 0.1139315,0.0869 0.2788645,0.157999 0.3665179,0.157999 0.1965209,0 0.3552568,0.05749 0.3552568,0.128654 0,0.02942 -0.2476462,0.350061 -0.5503249,0.712543 -0.3593751,0.43038 -0.5614069,0.727348 -0.5822636,0.855872 -0.037743,0.232585 0.00956,0.491378 0.2274061,1.244108 0.088704,0.306501 0.2065955,0.724458 0.2619817,0.928792 0.3070542,1.132804 0.3593508,1.207431 0.8461415,1.207431 0.1955465,0 0.3820459,-0.03871 0.4643962,-0.09639 z M 16.447646,18.96303 C 16.294431,18.835221 16.076698,18.673837 15.963794,18.604399 15.77318,18.487168 15.758699,18.455172 15.7611,18.15656 c 0.0031,-0.379541 0.137645,-0.596201 0.498591,-0.8026 0.296982,-0.169823 0.517376,-0.17605 0.817079,-0.02309 0.292816,0.149448 0.438153,0.311526 0.53689,0.598731 0.171326,0.498353 -0.187137,1.109055 -0.721139,1.228583 -0.132096,0.02957 -0.223602,-0.01057 -0.444875,-0.195156 z m 6.791687,0.165147 c -0.424552,-0.125767 -0.749777,-0.662646 -0.663308,-1.094987 0.08038,-0.401921 0.582244,-0.819568 0.984825,-0.819568 0.237938,0 0.620308,0.218322 0.783781,0.447515 0.216958,0.304182 0.204058,0.815353 -0.02826,1.119941 -0.09504,0.124601 -0.220425,0.251549 -0.278638,0.282107 -0.177475,0.09316 -0.589955,0.12674 -0.798398,0.06499 z"
         id="path5" />
      
      <path
         id="path4"
         d="M 3.3511044,34.310857 C 3.2365896,34.196342 3.1472895,33.954564 2.9481306,33.219814 2.8927444,33.01548 2.7748526,32.597523 2.6861489,32.291022 2.4683034,31.538292 2.4209996,31.279499 2.4587428,31.046914 2.4795995,30.91839 2.6816313,30.621422 3.0410064,30.191042 3.3436851,29.82856 3.5913313,29.507916 3.5913313,29.478499 c 0,-0.07117 -0.1587359,-0.128654 -0.3552568,-0.128654 -0.087653,0 -0.2525864,-0.0711 -0.3665179,-0.157999 C 2.4629202,28.881689 2.4767802,29.017521 2.4767802,25.342526 V 22.010171 L 2.6376945,21.773365 C 2.7261974,21.643121 2.89338,21.49696 3.0092115,21.448563 l 0.2106027,-0.088 V 20.526258 19.691952 L 2.9698923,19.534183 C 2.8324352,19.447414 2.6653567,19.286848 2.5986067,19.177373 2.4805641,18.983775 2.4772368,18.833031 2.4770116,13.668525 L 2.4767802,8.3587223 2.7749945,8.0493302 3.0732089,7.7399381 H 5.3150094 7.55681 L 7.896052,8.06852 8.2352941,8.3971018 v 0.5616693 c 0,0.6599726 0.039053,0.7165946 0.4750654,0.6887809 L 9.0092879,9.628483 9.0402477,8.10087 9.0712074,6.5732569 9.2609875,6.3052043 C 9.3739085,6.1457103 9.5653203,5.9804347 9.7336208,5.8971062 l 0.2828532,-0.1400456 10.18235,0.016207 10.182349,0.016207 0.227435,0.1734794 c 0.411881,0.314168 0.424158,0.3747046 0.416455,2.0534539 -0.0057,1.2339498 0.0089,1.5142417 0.08187,1.5747935 0.05662,0.046992 0.264632,0.067077 0.574504,0.055473 l 0.485746,-0.01819 0.03096,-0.7347222 0.03096,-0.7347221 0.242515,-0.2095503 0.242514,-0.2095503 h 2.20847 2.208469 l 0.242515,0.2096331 0.242514,0.2096331 v 5.5334003 5.533401 l -0.201238,0.272448 c -0.200048,0.270836 -0.201239,0.276736 -0.201239,0.996902 0,0.720166 0.0012,0.726066 0.201239,0.996902 l 0.201238,0.272448 0.01875,3.436532 c 0.013,2.382729 -0.0023,3.508644 -0.04981,3.671692 -0.07344,0.251864 -0.355208,0.476264 -0.598553,0.476684 -0.177171,3.05e-4 -0.330141,0.06153 -0.330141,0.132129 0,0.0312 0.20525,0.300002 0.456112,0.597337 0.469925,0.556982 0.720358,0.953565 0.720358,1.140749 0,0.05891 -0.0387,0.226507 -0.08599,0.372434 -0.04729,0.145927 -0.189398,0.641483 -0.315784,1.101235 -0.362427,1.318403 -0.408136,1.446593 -0.568528,1.594428 -0.290278,0.267552 -1.006575,0.136437 -1.137619,-0.208235 -0.03259,-0.08573 -0.05926,-0.631412 -0.05926,-1.212636 0,-0.950251 -0.01254,-1.077059 -0.124387,-1.258034 -0.157476,-0.254801 -0.420625,-0.365927 -0.759038,-0.320536 -0.304926,0.0409 -0.501704,0.232841 -0.599416,0.584682 -0.03545,0.127653 -0.06461,0.696542 -0.0648,1.264198 l -3.45e-4,1.032101 -0.208547,0.128889 c -0.27811,0.171882 -0.795048,0.177926 -0.961729,0.01125 -0.0647,-0.0647 -0.163555,-0.280649 -0.219669,-0.479876 -0.05611,-0.199227 -0.154932,-0.543346 -0.219598,-0.764709 -0.339196,-1.161125 -0.49572,-1.74904 -0.49572,-1.86195 0,-0.204654 0.164009,-0.464194 0.684622,-1.083397 0.270517,-0.321746 0.491848,-0.609666 0.491848,-0.639823 0,-0.07143 -0.156699,-0.13 -0.3478,-0.13 -0.08355,0 -0.222016,-0.04593 -0.307698,-0.102074 -0.340522,-0.223119 -0.335214,-0.160701 -0.335214,-3.941288 v -3.492237 l 0.201239,-0.272448 0.201238,-0.272448 v -0.773994 c 0,-0.764769 -0.0022,-0.776887 -0.185758,-1.016743 l -0.185759,-0.242749 -0.03096,-2.079232 -0.03096,-2.079233 -0.485746,-0.01819 c -0.312021,-0.01168 -0.517765,0.0084 -0.575272,0.05611 -0.07615,0.0632 -0.08835,0.549887 -0.08168,3.258473 0.0043,1.751296 -0.0086,3.200587 -0.02862,3.220646 -0.02006,0.02006 -0.489176,0.02992 -1.042482,0.02192 -0.553306,-0.008 -1.054772,0.0042 -1.11437,0.02708 -0.100094,0.03846 -0.108469,0.195804 -0.109805,2.062874 l -0.0014,2.021239 -0.168832,0.308561 c -0.1186,0.216756 -0.251735,0.354927 -0.44747,0.464397 -0.274167,0.153334 -0.300495,0.155835 -1.640867,0.155835 -0.749226,0 -1.438343,-0.0213 -1.531372,-0.04734 -0.216169,-0.06049 -0.580691,-0.37979 -0.716373,-0.627491 -0.09174,-0.167481 -0.107678,-0.453271 -0.124596,-2.234159 -0.01415,-1.489715 -0.03928,-2.054751 -0.09288,-2.088835 -0.09599,-0.06104 -7.047829,-0.06106 -7.143813,-3.1e-5 -0.05349,0.03401 -0.07871,0.592863 -0.09288,2.057875 l -0.01945,2.011183 -0.154799,0.276242 c -0.174903,0.312117 -0.459344,0.528528 -0.823589,0.626609 -0.154744,0.04167 -0.784052,0.05895 -1.677954,0.04608 -1.320898,-0.01902 -1.449297,-0.03073 -1.678023,-0.153096 -0.303905,-0.162586 -0.431398,-0.29926 -0.554914,-0.594877 -0.07897,-0.189012 -0.09524,-0.566323 -0.09524,-2.209177 0,-1.938716 -0.0027,-1.982703 -0.127877,-2.049672 -0.0822,-0.04399 -0.541169,-0.06517 -1.28483,-0.0593 -0.6363237,0.005 -1.1915359,0.007 -1.2338045,0.0043 -0.059942,-0.0037 -0.080379,-0.723483 -0.092879,-3.271056 L 9.0092879,15.077399 8.7103595,15.05833 c -0.1672731,-0.01067 -0.3377159,0.01312 -0.3869969,0.05402 -0.072678,0.06032 -0.088068,0.408402 -0.088068,1.991807 v 1.918716 l -0.371517,0.35793 -0.371517,0.35793 v 0.755147 0.755147 l 0.371517,0.365794 0.371517,0.365793 v 3.37393 3.37393 L 7.9721194,29.00314 c -0.1461743,0.152556 -0.3457505,0.292405 -0.4489164,0.31457 -0.1021579,0.02195 -0.2484352,0.05262 -0.3250606,0.06816 -0.076625,0.01554 -0.1393189,0.05633 -0.1393189,0.09065 0,0.03432 0.2089094,0.313401 0.464243,0.620181 0.2553336,0.306781 0.5223191,0.671622 0.593301,0.810758 l 0.129058,0.252974 -0.1311735,0.503374 c -0.1715485,0.65831 -0.2681777,1.006482 -0.4621765,1.665299 -0.087898,0.298502 -0.1598154,0.581968 -0.1598154,0.629924 0,0.04796 -0.072136,0.172922 -0.160303,0.277702 -0.1394612,0.16574 -0.2003691,0.19051 -0.468467,0.19051 -0.5643564,0 -0.5476429,0.04019 -0.5481086,-1.317968 -4.467e-4,-1.302406 -0.014279,-1.360196 -0.3977907,-1.661866 -0.2556568,-0.2011 -0.7984298,-0.230542 -1.0729555,-0.0582 -0.4113837,0.258255 -0.4478606,0.39564 -0.448119,1.687775 -2.251e-4,1.125786 -0.004,1.160119 -0.137848,1.25387 -0.2013119,0.141005 -0.7588469,0.12872 -0.9075639,-0.02 z M 17.209796,19.014859 c 0.371986,-0.261428 0.535774,-0.701555 0.403864,-1.085256 -0.09874,-0.287205 -0.244074,-0.449283 -0.53689,-0.598731 -0.299703,-0.152962 -0.520097,-0.146735 -0.817079,0.02309 -0.360946,0.206399 -0.49554,0.423059 -0.498591,0.8026 -0.0024,0.298612 0.01208,0.330608 0.202694,0.447839 0.112904,0.06944 0.330637,0.230822 0.483852,0.358631 0.302351,0.252216 0.46161,0.263046 0.76215,0.05183 z m 6.827935,0.04833 c 0.05821,-0.03056 0.1836,-0.157506 0.278638,-0.282107 0.23232,-0.304588 0.24522,-0.815759 0.02826,-1.119941 -0.163473,-0.229193 -0.545843,-0.447515 -0.783781,-0.447515 -0.402581,0 -0.904441,0.417647 -0.984825,0.819568 -0.08647,0.432341 0.238756,0.96922 0.663308,1.094987 0.208443,0.06175 0.620923,0.02817 0.798398,-0.06499 z">
        <animate 
          attributeName="fill" 
          values="#ca2779;#ff0000;#ffff00;#00ff00;#00ffff;#0000ff;#ca2779" 
          dur="5s" 
          repeatCount="indefinite" />
      </path>
    </g>
  </g>
</svg>
